<svg xmlns="http://www.w3.org/2000/svg" width="93" height="117" fill="none"><path fill="#fff" stroke="#0F1E35" stroke-linejoin="round" stroke-width="2" d="M1 113v-7h22v8l-1.5 1.5h-18L1 113zm91 0v-7H70v8l1.5 1.5h18L92 113z"/><path fill="#fff" stroke="#0F1E35" stroke-linejoin="round" stroke-width="2" d="M1 106h27l8 8h21l8-8h27V55.5H1V106z"/><mask id="a" fill="#fff"><path fill-rule="evenodd" d="M32.603 13.085c1.697-1.455 3.329-2.753 5.451-3.69 1.97-.871 4.541-1.504 8.143-1.38a4 4 0 0 0 1.025.075c3.909-.217 6.65.436 8.724 1.352 2.123.938 3.754 2.236 5.45 3.691 2.466 2.113 4.302 5.265 3.669 8.748-.223 1.224-1.399 2.896-3.872 4.789-2.329 1.783-5.152 3.265-7.377 4.298a4 4 0 0 0-2.167 4.71l20.5 72.999a4 4 0 0 0 7.702-2.162L60.246 36.701c1.871-1 3.924-2.234 5.81-3.679 2.862-2.19 6.102-5.434 6.88-9.71 1.334-7.34-2.676-13.119-6.333-16.253-1.802-1.545-4.171-3.497-7.424-4.934C56.022.73 52.216-.105 47.436.072a4.06 4.06 0 0 0-.214-.018c-5.091-.283-9.1.564-12.401 2.023-3.252 1.437-5.621 3.389-7.424 4.934-3.656 3.134-7.667 8.912-6.332 16.253.777 4.276 4.018 7.52 6.878 9.71 1.887 1.444 3.94 2.68 5.811 3.679L14.15 106.467a4 4 0 1 0 7.702 2.162l20.5-73a4 4 0 0 0-2.166-4.709c-2.226-1.033-5.05-2.515-7.378-4.298-2.473-1.893-3.649-3.566-3.872-4.79-.633-3.482 1.203-6.634 3.668-8.747z" clip-rule="evenodd"/></mask><path fill="#fff" fill-rule="evenodd" d="M32.603 13.085c1.697-1.455 3.329-2.753 5.451-3.69 1.97-.871 4.541-1.504 8.143-1.38a4 4 0 0 0 1.025.075c3.909-.217 6.65.436 8.724 1.352 2.123.938 3.754 2.236 5.45 3.691 2.466 2.113 4.302 5.265 3.669 8.748-.223 1.224-1.399 2.896-3.872 4.789-2.329 1.783-5.152 3.265-7.377 4.298a4 4 0 0 0-2.167 4.71l20.5 72.999a4 4 0 0 0 7.702-2.162L60.246 36.701c1.871-1 3.924-2.234 5.81-3.679 2.862-2.19 6.102-5.434 6.88-9.71 1.334-7.34-2.676-13.119-6.333-16.253-1.802-1.545-4.171-3.497-7.424-4.934C56.022.73 52.216-.105 47.436.072a4.06 4.06 0 0 0-.214-.018c-5.091-.283-9.1.564-12.401 2.023-3.252 1.437-5.621 3.389-7.424 4.934-3.656 3.134-7.667 8.912-6.332 16.253.777 4.276 4.018 7.52 6.878 9.71 1.887 1.444 3.94 2.68 5.811 3.679L14.15 106.467a4 4 0 1 0 7.702 2.162l20.5-73a4 4 0 0 0-2.166-4.709c-2.226-1.033-5.05-2.515-7.378-4.298-2.473-1.893-3.649-3.566-3.872-4.79-.633-3.482 1.203-6.634 3.668-8.747z" clip-rule="evenodd"/><path fill="#0F1E35" d="m38.054 9.394.808 1.83-.808-1.83zm-5.45 3.691 1.3 1.518-1.3-1.518zm13.593-5.07.4-1.959a1.999 1.999 0 0 0-.33-.04l-.07 2zm1.025.075.11 1.997-.11-1.997zm8.724 1.352-.808 1.83.808-1.83zm5.45 3.691-1.3 1.519 1.3-1.519zm3.669 8.748 1.967.357-1.967-.357zm-3.872 4.789 1.216 1.588-1.216-1.588zm-7.377 4.298-.843-1.814.843 1.814zm-2.167 4.71-1.925.54 1.925-.54zm20.5 72.999 1.925-.54-1.925.54zm4.933 2.77.54 1.926-.54-1.926zm2.77-4.932-1.926.54 1.925-.54zM60.245 36.701l-.943-1.764a2 2 0 0 0-.983 2.304l1.926-.54zm5.81-3.679-1.215-1.588 1.216 1.588zm6.88-9.71-1.968-.358 1.968.358zM66.603 7.059l1.302-1.519-1.302 1.519zM59.18 2.125l.808-1.83-.808 1.83zM47.436.072l-.217 1.988a2 2 0 0 0 .29.01L47.437.072zm-.214-.018-.111 1.997.11-1.997zM34.82 2.077l-.808-1.83.808 1.83zM27.397 7.01l-1.302-1.519 1.302 1.519zm-6.332 16.253 1.967-.358-1.967.358zm6.878 9.71 1.216-1.588-1.216 1.588zm5.811 3.679 1.926.54a2 2 0 0 0-.983-2.304l-.943 1.764zM14.15 106.467l1.926.54-1.926-.54zm2.77 4.932-.541 1.926.54-1.926zm4.932-2.77-1.925-.54 1.925.54zm20.5-73-1.925-.54 1.925.54zm-2.166-4.709.842-1.814-.843 1.814zm-7.378-4.298L31.59 28.21l1.216-1.588zm-3.872-4.79-1.967.358 1.968-.358zm8.31-14.267c-2.405 1.063-4.221 2.525-5.943 4.001l2.603 3.037c1.672-1.433 3.118-2.567 4.957-3.38l-1.616-3.658zm9.021-1.548c-3.889-.135-6.761.55-9.02 1.548l1.616 3.659c1.682-.743 3.951-1.324 7.266-1.21l.138-3.997zm-.47 3.958c.497.101 1.012.14 1.537.112l-.222-3.994c-.179.01-.35-.004-.514-.037l-.8 3.92zm1.537.112c3.613-.2 6.037.404 7.805 1.185l1.616-3.66c-2.38-1.051-5.438-1.753-9.643-1.519l.222 3.994zm7.805 1.185c1.839.812 3.285 1.946 4.957 3.38l2.604-3.037c-1.723-1.477-3.539-2.939-5.945-4.002l-1.616 3.659zm4.957 3.38c2.157 1.848 3.461 4.344 3.002 6.87l3.935.716c.807-4.437-1.56-8.247-4.333-10.623l-2.604 3.037zm3.002 6.87c-.084.462-.744 1.741-3.12 3.56l2.432 3.176c2.57-1.967 4.262-4.033 4.623-6.02l-3.935-.715zm-3.12 3.56c-2.16 1.654-4.832 3.064-7.004 4.072l1.685 3.628c2.279-1.058 5.253-2.611 7.751-4.524l-2.431-3.176zm-7.004 4.072a6 6 0 0 0-3.25 7.064l3.852-1.081a2 2 0 0 1 1.083-2.355l-1.685-3.628zm-3.25 7.064 20.5 73 3.852-1.081-20.5-73-3.852 1.081zm20.5 73a6 6 0 0 0 7.4 4.155l-1.082-3.851a2.001 2.001 0 0 1-2.466-1.385l-3.852 1.081zm7.4 4.155a6 6 0 0 0 4.154-7.399l-3.851 1.081a2 2 0 0 1-1.385 2.467l1.081 3.851zm4.154-7.399L62.17 36.16l-3.85 1.081 19.605 69.814 3.85-1.081zm-20.589-67.51c1.932-1.031 4.085-2.323 6.084-3.854l-2.431-3.176c-1.774 1.358-3.727 2.536-5.537 3.503l1.884 3.528zm6.084-3.854c2.958-2.264 6.715-5.902 7.631-10.94l-3.935-.716c-.639 3.513-3.363 6.364-6.127 8.48l2.431 3.176zm7.631-10.94c1.511-8.31-3.05-14.745-6.998-18.13l-2.603 3.038c3.364 2.883 6.824 8.005 5.666 14.376l3.935.715zM67.905 5.54c-1.83-1.568-4.383-3.683-7.918-5.245l-1.616 3.66c2.97 1.312 5.155 3.1 6.93 4.623l2.604-3.037zM59.987.295c-3.449-1.524-7.558-2.41-12.626-2.222l.149 3.997c4.493-.167 7.995.618 10.86 1.884L59.988.295zM47.111 2.051c.037.002.073.005.108.009l.433-3.977a6.061 6.061 0 0 0-.32-.026l-.221 3.994zM35.629 3.906c2.994-1.323 6.686-2.121 11.482-1.855l.222-3.994c-5.387-.299-9.713.597-13.32 2.19l1.616 3.66zM28.7 8.53c1.775-1.521 3.96-3.31 6.93-4.623L34.013.247c-3.535 1.562-6.088 3.677-7.918 5.245L28.7 8.53zm-5.667 14.377c-1.158-6.371 2.302-11.493 5.666-14.377l-2.603-3.037c-3.948 3.385-8.509 9.82-6.998 18.13l3.935-.716zm6.127 8.48c-2.764-2.116-5.488-4.967-6.127-8.48l-3.935.715c.916 5.04 4.673 8.677 7.63 10.941l2.432-3.176zm5.538 3.503c-1.81-.967-3.764-2.145-5.538-3.503l-2.431 3.176c1.999 1.53 4.152 2.823 6.084 3.855l1.885-3.528zm-18.623 72.118L35.68 37.193l-3.851-1.081-19.605 69.814 3.85 1.081zm1.385 2.467a2 2 0 0 1-1.384-2.467l-3.851-1.081a6 6 0 0 0 4.154 7.399l1.081-3.851zm2.467-1.385a2.001 2.001 0 0 1-2.467 1.385l-1.081 3.851a6.001 6.001 0 0 0 7.399-4.155l-3.851-1.081zm20.5-73-20.5 73 3.85 1.081 20.5-73-3.85-1.081zm-1.084-2.355a2 2 0 0 1 1.084 2.355l3.85 1.081a6 6 0 0 0-3.25-7.064l-1.684 3.628zm-7.751-4.524c2.498 1.913 5.472 3.466 7.751 4.524l1.685-3.628c-2.172-1.008-4.844-2.418-7.005-4.072l-2.431 3.176zm-4.623-6.02c.361 1.987 2.053 4.053 4.623 6.02l2.431-3.176c-2.375-1.819-3.035-3.098-3.119-3.56l-3.935.716zm4.334-10.624c-2.773 2.377-5.141 6.187-4.334 10.624l3.935-.715c-.46-2.528.845-5.023 3.002-6.872l-2.603-3.037z" mask="url(#a)"/><path fill="#fff" stroke="#0F1E35" stroke-linejoin="round" stroke-width="2" d="M41 107c-.5 0-3.667 4.667-5 7h21c-1.167-2.333-4.6-7-5-7H41z"/></svg>