<svg xmlns="http://www.w3.org/2000/svg" width="304" height="304" fill="none"><path fill="#fff" fill-rule="evenodd" d="M7 0a7 7 0 0 0-7 7v290a7 7 0 0 0 7 7h290a7 7 0 0 0 7-7V7a7 7 0 0 0-7-7H7zm32.52 127.901c0 9.216 2.234 17.524 6.702 24.924 4.608 7.4 10.821 13.265 18.64 17.593 7.96 4.328 16.826 6.493 26.6 6.493 4.049 0 7.749-.419 11.1-1.257 3.49-.977 6.562-2.374 9.215-4.189 1.98-1.286 3.714-2.749 5.202-4.386.559-.615 1.651-.224 1.6.606-.361 5.854-1.511 11.023-3.451 15.509-2.234 5.027-5.375 8.866-9.425 11.519-3.909 2.653-8.657 3.98-14.242 3.98-5.445 0-10.681-1.257-15.708-3.77-4.582-2.357-8.489-5.573-11.72-9.648a.865.865 0 0 0-1.326-.043L45.03 205.266a.84.84 0 0 0-.01 1.104c5.762 6.711 12.516 11.901 20.262 15.571 8.099 3.909 16.686 5.864 25.761 5.864 12.008 0 22.411-3.211 31.207-9.634 8.797-6.423 15.569-15.639 20.316-27.647 4.747-12.147 7.121-26.878 7.121-44.192 0-14.94-2.234-27.646-6.702-38.118-4.328-10.472-10.612-18.5-18.85-24.086-8.238-5.585-18.151-8.377-29.74-8.377-10.333 0-19.688 2.373-28.066 7.12-8.238 4.608-14.8 10.822-19.687 18.641-4.747 7.819-7.121 16.616-7.121 26.389zm54.874-23.876c4.188 0 7.958 1.117 11.309 3.351 3.491 2.095 6.284 4.957 8.378 8.587 2.234 3.491 3.351 7.47 3.351 11.938 0 4.05-1.047 7.82-3.141 11.31a24.064 24.064 0 0 1-8.378 8.378c-3.351 1.955-7.191 2.932-11.52 2.932-4.188 0-8.028-.977-11.519-2.932a24.06 24.06 0 0 1-8.377-8.378c-2.095-3.49-3.142-7.26-3.142-11.31 0-4.468 1.047-8.447 3.142-11.938 2.234-3.63 5.096-6.492 8.587-8.587 3.49-2.234 7.26-3.351 11.31-3.351zm94.465-19.224a2.58 2.58 0 0 1 2.184 1.207l18.746 29.833c.889 1.688 3.307 1.688 4.195 0l18.747-29.833a2.58 2.58 0 0 1 2.184-1.207h28.329c2.066 0 3.294 2.308 2.139 4.022L232.16 138.09a2.581 2.581 0 0 0 .007 2.896l34.017 49.891c1.168 1.712-.059 4.033-2.132 4.033h-28.343a2.58 2.58 0 0 1-2.147-1.149l-19.706-29.559a2.08 2.08 0 0 1-.145-.256c-.729-1.539-2.92-1.539-3.649 0-.042.089-.09.174-.144.256l-19.707 29.559a2.578 2.578 0 0 1-2.146 1.149h-28.312c-2.079 0-3.304-2.333-2.124-4.045l33.969-49.255a2.58 2.58 0 0 0 .023-2.896l-33.268-49.902c-1.143-1.715.086-4.011 2.146-4.011h28.36z" clip-rule="evenodd"/></svg>