<svg xmlns="http://www.w3.org/2000/svg" width="24" height="24" fill="none"><path fill="#FF6D33" stroke="#0F1E35" stroke-linecap="round" stroke-linejoin="round" d="M19 3.5H5c-.646 0-1.25.188-1.707.518-.455.329-.793.827-.793 1.426v10.112c0 .6.338 1.097.793 1.426.456.33 1.061.518 1.707.518h14c.646 0 1.25-.188 1.707-.518.455-.329.793-.827.793-1.426V5.444c0-.6-.338-1.097-.793-1.426-.456-.33-1.061-.518-1.707-.518z"/><path stroke="#0F1E35" stroke-linecap="round" d="m6 13.5 2.542-4.66a.5.5 0 0 1 .886.016l1.165 2.33a.5.5 0 0 0 .876.033l2.125-3.541a.5.5 0 0 1 .844-.02l1.084 1.625a.5.5 0 0 0 .863-.054L18 6M6 15.5l3.785-2.366a.5.5 0 0 1 .45-.04l4.37 1.748a.5.5 0 0 0 .614-.207L18 10"/><path stroke="#0F1E35" stroke-width="2" d="M12 18v2"/><path stroke="#0F1E35" stroke-linecap="round" d="M8 20h8"/></svg>