<svg xmlns="http://www.w3.org/2000/svg" width="320" height="116" fill="none"><mask id="b" width="320" height="116" x="0" y="0" maskUnits="userSpaceOnUse" style="mask-type:alpha"><g fill="#000" clip-path="url(#a)"><path d="M266.543 19.01c8.365-.562 19.454-.524 27.857-.106 9.066.45 16.555 3.75 21.152 11.924 6.101 10.845 3.421 28.76 3.079 40.855-5.807 28.384-33.476 21.21-54.361 20.9-11.025-1.15-20.031-10.741-20.847-21.803-.604-8.213-.604-21.803 0-30.02.936-12.73 10.898-20.93 23.12-21.75Zm-.635 3.828c-10.019.862-17.927 8.296-18.679 18.558-.581 7.929-.625 21.47.016 29.361.784 9.633 8.593 16.883 17.936 18.028 11.263-.503 31.292 3.252 40.885-3.245 13.419-9.556 8.316-36.35 9.32-44.4-1.004-10.396-10.075-17.778-20.354-18.41-8.242-.504-20.962-.593-29.124.108ZM93.065 40.951c25.438-1.62 25.505 39.492 2.14 41.078-25.775 1.749-25.908-39.562-2.14-41.078Zm.638 2.527c-10.162.55-9.333 20.603-7.397 27.368 2.543 8.876 11.423 12.823 15.772 3.095 3.235-7.237 3.349-31.094-8.378-30.463h.003Zm74.666 14.289h-24.285c-.937 1.786-.225 5.354.254 7.402 2.781 11.905 16.701 15.003 23.127 4.432l1.206.316c-1.86 9.783-11.816 14.151-20.92 11.286-11.181-3.516-13.769-18.143-10.096-27.99 6.731-18.05 31.648-16.09 30.718 4.55l-.004.004Zm-7.936-2.234c.159-4.467-1.118-11.295-6.492-11.822-6.975-.682-9.349 6.044-10.016 11.822h16.508Zm35.872-1.276c.464-3.823.686-9.805-4.314-10.5-11.968-1.666-13.238 18.707-8.638 26.23 4.016 6.573 12.613 7.696 18.2 2.467.682-.642 1.787-2.569 2.53-2.572l.784.51c-3.752 14.742-23.619 15.737-29.568 1.95-4.981-11.547-.467-28.347 13.054-31.02 5.92-1.172 15.825.258 15.543 8.283-.045 1.292-1.607 4.655-2.988 4.655h-4.603v-.003ZM15.355 60v12.923c0 .153.384 2.109.466 2.403.902 3.18 6.108 3.069 8.724 3.516l.016 2.536H.431v-2.552c1.92-.128 5.073-.157 5.787-2.32l.229-42.81C6.03 31.054 2.539 30.974.45 30.633l-.016-2.218H25.99c7.552 0 15.14 6.87 15.707 14.521 1.124 15.147-14.631 18.053-26.342 17.067V60Zm.317-2.871h4.92c.309 0 2.315-.31 2.779-.4 7.787-1.483 9.561-8.544 8.72-15.624-.603-5.083-4.232-8.603-9.108-9.672-1.444-.319-7.31-1.164-7.31 1.286v24.41Z"/><path d="M59.481 40.856v9.253c1.295-.3 1.692-2.361 2.407-3.484 2.428-3.826 5.86-7.697 10.612-4.586v7.113h-5.559c-2.146 0-7.444 3.242-7.466 5.896l.076 21.637c.206.922.822 1.222 1.616 1.566 2.159.932 5.638-.293 4.524 2.83H45.97l-.102-1.901c2.933-.527 4.723-.137 5.054-3.692v-26.76c-.823-.878-5.19-2.151-4.766-3.54l13.324-4.33v-.002Zm161.268-8.616v9.573h10.159v3.19h-10.159v26.643c0 .118.514 1.991.619 2.25 1.718 4.32 7.937 3.459 10.946 1.104l.673.925c-3.057 6.643-15.092 8.832-18.968 1.848-.413-.744-1.524-3.832-1.524-4.531V45.003h-4.762c-.371-2.16 2.711-3.149 4.277-4.476 1.012-.858 2.488-2.323 3.352-3.331.813-.951 2.771-4.276 3.301-4.659.648-.466 1.369-.287 2.086-.297Zm70.793 0 7.704 40.278c.74 2.721 4.143.733 2.772 4.393h-18.73l.336-2.214c9.165.332 5.248-6.414 4.604-12.163-.226-.335-.616-.271-.956-.316-2.981-.374-11.943-.354-14.955 0-.457.054-.835.032-1.061.53-.689 2.166-5.869 8.503-4.771 10.446.727 1.283 3.378 1.362 4.736 1.49l-.793 2.23h-12.857l.374-2.176c2.845-.233 3.438-1.493 4.838-3.596 7.369-11.062 13.438-23.26 20.41-34.53l-.857-4.371h9.206Zm-18.413 26.484h14.286c-.667-4.601-1.248-9.856-2.368-14.368-.378-1.516-.816-3.184-2.54-1.57l-9.378 15.938Zm-144.76-17.868V80.58c0 .574-.701 3.123-.939 3.841-1.759 5.243-7.353 9.93-11.438 13.395l-.959-.322-.314-.626c1.908-4.004 4.254-7.048 4.993-11.588 1.661-10.185-.371-22.62.369-33.06-.359-2.042-1.077-3.644-2.718-4.923-.946-.737-2.438-.817-1.968-2.09.238-.645 11.378-4.12 12.978-4.35l-.004-.002Zm-5.162-15.881c6.05-.973 8.567 7.692 3.333 10.053-8.132 3.67-11.021-8.815-3.333-10.053Z"/></g></mask><g mask="url(#b)"><path fill="#0F1E35" d="M-51.033.458h406.845v114.778H-51.033z"/></g><defs><clipPath id="a"><path fill="#fff" d="M.431 17.873h318.685v79.94H.431z"/></clipPath></defs></svg>