<svg xmlns="http://www.w3.org/2000/svg" width="24" height="24" fill="none"><path fill="#FF6D33" fill-rule="evenodd" d="M18.624 15.6a1.5 1.5 0 0 1 .103-.873 1.5 1.5 0 0 1 1.373-.909h.082a1.818 1.818 0 0 0 0-3.636h-.155a1.5 1.5 0 0 1-1.373-.91V9.2a1.5 1.5 0 0 1 .3-1.655l.055-.054a1.819 1.819 0 1 0-2.573-2.573l-.054.055a1.5 1.5 0 0 1-1.655.3 1.5 1.5 0 0 1-.909-1.373v-.082a1.818 1.818 0 0 0-3.636 0v.155a1.5 1.5 0 0 1-.91 1.372H9.2a1.5 1.5 0 0 1-1.655-.3l-.054-.054a1.818 1.818 0 1 0-2.573 2.573l.055.054a1.5 1.5 0 0 1 .3 1.655 1.5 1.5 0 0 1-1.373.982h-.082a1.818 1.818 0 0 0 0 3.636h.155a1.5 1.5 0 0 1 1.372.909 1.5 1.5 0 0 1-.3 1.654l-.054.055a1.819 1.819 0 1 0 2.573 2.573l.054-.055a1.5 1.5 0 0 1 1.655-.3 1.5 1.5 0 0 1 .982 1.373v.082a1.818 1.818 0 0 0 3.636 0v-.155a1.5 1.5 0 0 1 .909-1.373 1.5 1.5 0 0 1 1.654.3l.055.055a1.82 1.82 0 1 0 2.573-2.573l-.055-.054a1.5 1.5 0 0 1-.403-.782zM15 12a3 3 0 1 1-6 0 3 3 0 0 1 6 0z" clip-rule="evenodd"/><path fill="#0F1E35" d="m18.727 14.727.458.202.002-.005-.46-.197zm-.103.873-.492.09.492-.09zm.654-1.532.276.416-.276-.416zm.822-.25v-.5h-.002l.002.5zm1.367-.532-.353-.354.354.354zm0-2.572-.353.354.354-.354zm-1.44-.532-.002.5h.002v-.5zm-.822-.25-.276.417.276-.417zm-.55-.66h-.5a.5.5 0 0 0 .04.198l.46-.197zm0-.072h.5a.501.501 0 0 0-.043-.202l-.457.202zm-.104-.873-.492-.09.492.09zm.404-.782-.354-.353-.004.004.357.35zm.054-.054-.353-.354.353.354zm.395-.59.462.191-.462-.191zm0-1.393.462-.191-.462.191zm-.395-.59-.354.354.354-.354zm-1.983-.394.192.461-.192-.461zm-.59.394.354.354-.354-.354zm-.054.055.35.357.003-.004-.353-.353zm-1.655.3.202-.458-.005-.002-.197.46zm-.66-.55.417-.277-.416.276zm-.249-.823h-.5v.002l.5-.002zm-.532-1.367-.354.353.354-.353zm-2.572 0-.353-.354.353.354zm-.532 1.44.5.002v-.002h-.5zm-.25.822.417.276-.417-.276zm-.66.55v.5a.5.5 0 0 0 .198-.04l-.197-.46zm-.072 0v-.5a.5.5 0 0 0-.202.043l.202.457zm-1.655-.3-.353.354.004.004.35-.358zm-.054-.054-.354.353.354-.353zm-1.983-.395.192.462-.192-.462zm-.59.395.354.354-.354-.354zm-.394.59.461.191-.461-.191zm.394 1.983.354-.354-.354.354zm.055.054.357-.35-.004-.003-.353.353zm.3 1.655-.458-.202a.498.498 0 0 0-.012.03l.47.172zm-.535.702.29.407-.29-.407zm-.838.28v.5h.012l-.012-.5zm-1.367.532-.354-.354.354.354zm0 2.571.353-.353-.353.353zm1.44.533.002-.5h-.002v.5zm.822.25-.276.416.276-.417zm.55.659-.46.197.003.005.457-.202zm-.3 1.654.354.354.004-.004-.358-.35zm-.054.055.353.354-.353-.354zm-.395.59.462.192-.462-.192zm.395 1.983.354-.354-.354.354zm.59.395-.191.461.191-.461zm1.393 0 .191.461-.191-.461zm.59-.395-.354-.354.354.354zm.054-.055-.35-.357-.003.004.353.353zm.781-.403-.089-.492.09.492zm.874.103-.202.458.03.012.172-.47zm.702.535.407-.29-.407.29zm.28.838h.5v-.012l-.5.012zm.532 1.367.354-.353-.354.354zm2.571 0-.353-.353.353.354zm.533-1.44-.5-.002v.002h.5zm.25-.822.416.276-.417-.276zm.659-.55.197.46.005-.003-.202-.457zm.873-.104.09-.492-.09.492zm.781.404.354-.354-.004-.004-.35.357zm.055.054.354-.353-.354.353zm.59.395-.191.462.191-.462zm1.393 0 .191.462-.191-.462zm.59-.395-.354-.354.354.354zm.395-.59.461.191-.461-.191zm0-1.393.461-.191-.461.191zm-.395-.59-.354.354.354-.354zm-.055-.054-.357.35.004.003.353-.353zm-.757-1.857a2 2 0 0 0-.138 1.165l.984-.179a1 1 0 0 1 .069-.582l-.915-.404zm.732-.874a2 2 0 0 0-.734.88l.919.393a1 1 0 0 1 .367-.44l-.552-.833zm1.096-.333a2 2 0 0 0-1.096.333l.552.833a1 1 0 0 1 .548-.166l-.004-1zm.084 0H20.1v1h.082v-1zm.932-.386a1.318 1.318 0 0 1-.932.386v1c.615 0 1.204-.244 1.639-.679l-.707-.707zM21.5 12c0 .35-.139.685-.386.932l.707.707A2.318 2.318 0 0 0 22.5 12h-1zm-.386-.932c.247.247.386.582.386.932h1a2.32 2.32 0 0 0-.679-1.64l-.707.708zm-.932-.386c.35 0 .685.139.932.386l.707-.707a2.318 2.318 0 0 0-1.64-.68v1zm-.155 0h.155v-1h-.155v1zm-1.098-.333c.325.216.706.331 1.096.333l.004-1a1 1 0 0 1-.548-.166l-.552.833zm-.734-.88a2 2 0 0 0 .734.88l.552-.833a1 1 0 0 1-.367-.44l-.919.394zm-.04-.269v.073h1V9.2h-1zm-.096-.962a2 2 0 0 0 .138 1.164l.915-.404a1 1 0 0 1-.07-.582l-.983-.178zm.538-1.042a2 2 0 0 0-.538 1.042l.984.178a1 1 0 0 1 .269-.52l-.715-.7zm.058-.059-.054.055.707.707.055-.055-.707-.707zm.287-.428c-.067.16-.164.306-.286.428l.706.708c.216-.216.387-.471.504-.753l-.924-.383zm.1-.504c0 .173-.034.344-.1.504l.924.383c.116-.281.176-.583.176-.887h-1zm-.1-.505c.066.16.1.331.1.505h1c0-.305-.06-.607-.176-.888l-.924.383zm-.286-.428c.122.122.22.268.286.428l.924-.383a2.316 2.316 0 0 0-.504-.753l-.706.708zm-.428-.287c.16.067.305.164.427.287l.708-.707a2.318 2.318 0 0 0-.753-.503l-.383.923zm-.505-.1c.173 0 .345.034.505.1l.382-.923a2.319 2.319 0 0 0-.887-.177v1zm-.505.1c.16-.066.331-.1.505-.1v-1c-.305 0-.607.06-.888.177l.383.923zm-.428.287c.123-.123.268-.22.428-.287l-.383-.923a2.319 2.319 0 0 0-.752.503l.707.707zm-.055.054.055-.054-.707-.707-.055.054.707.707zm-1.045.542a2 2 0 0 0 1.042-.538l-.7-.715a1 1 0 0 1-.52.27l.178.983zm-1.165-.138a2 2 0 0 0 1.165.138l-.179-.984a1 1 0 0 1-.582-.069l-.404.915zm-.874-.732a2 2 0 0 0 .88.734l.393-.919a1 1 0 0 1-.44-.367l-.833.552zm-.333-1.096a2 2 0 0 0 .333 1.096l.833-.552a1 1 0 0 1-.166-.548l-1 .004zm0-.084V3.9h1v-.082h-1zm-.386-.932c.247.247.386.583.386.932h1c0-.615-.244-1.204-.679-1.639l-.707.707zM12 2.5c.35 0 .685.139.932.386l.707-.707A2.318 2.318 0 0 0 12 1.5v1zm-.932.386c.247-.247.582-.386.932-.386v-1a2.32 2.32 0 0 0-1.64.679l.708.707zm-.386.932c0-.35.139-.685.386-.932l-.707-.707a2.318 2.318 0 0 0-.68 1.64h1zm0 .155v-.155h-1v.155h1zm-.333 1.098a2 2 0 0 0 .333-1.096l-1-.004a1 1 0 0 1-.166.548l.833.552zm-.88.734a2 2 0 0 0 .88-.734l-.833-.552a1 1 0 0 1-.44.367l.394.919zm-.269.04h.073v-1H9.2v1zm-.962.096a2 2 0 0 0 1.164-.138l-.404-.915a1 1 0 0 1-.582.07l-.178.983zm-1.042-.538a2 2 0 0 0 1.042.538l.178-.984a1 1 0 0 1-.52-.269l-.7.715zm-.059-.059.055.055.707-.707-.055-.055-.707.707zm-.428-.286c.16.066.306.164.428.286l.708-.706a2.318 2.318 0 0 0-.753-.504l-.383.924zm-.504-.1c.173 0 .344.034.504.1l.383-.924a2.318 2.318 0 0 0-.887-.176v1zm-.505.1c.16-.066.331-.1.505-.1v-1c-.305 0-.607.06-.888.176l.383.924zm-.428.286c.122-.122.268-.22.428-.286l-.383-.924a2.318 2.318 0 0 0-.753.504l.708.706zm-.287.428c.067-.16.164-.305.287-.427l-.707-.708a2.318 2.318 0 0 0-.503.753l.923.382zm-.1.505c0-.173.034-.344.1-.505l-.923-.382a2.318 2.318 0 0 0-.177.887h1zm.1.505c-.066-.16-.1-.332-.1-.505h-1c0 .305.06.607.177.888l.923-.383zm.287.428a1.318 1.318 0 0 1-.287-.428l-.923.383a2.3 2.3 0 0 0 .503.752l.707-.707zm.054.055-.054-.055-.707.707.054.055.707-.707zm.542 1.045a2 2 0 0 0-.538-1.04l-.715.699a1 1 0 0 1 .27.52l.983-.178zM5.73 9.475a2 2 0 0 0 .138-1.165l-.984.179a1 1 0 0 1-.069.582l.915.404zm-.702.907a2 2 0 0 0 .714-.937L4.803 9.1a1 1 0 0 1-.356.468l.581.814zm-1.116.372a2 2 0 0 0 1.116-.372l-.581-.814a1 1 0 0 1-.559.187l.024 1zm-.094 0H3.9v-1h-.082v1zm-.932.387c.247-.248.583-.386.932-.386v-1a2.32 2.32 0 0 0-1.639.678l.707.708zm-.386.932c0-.35.139-.685.386-.932l-.707-.707a2.318 2.318 0 0 0-.679 1.639h1zm.386.932a1.318 1.318 0 0 1-.386-.932h-1c0 .614.244 1.204.679 1.639l.707-.707zm.932.386c-.35 0-.685-.139-.932-.386l-.707.707a2.318 2.318 0 0 0 1.64.679v-1zm.155 0h-.155v1h.155v-1zm1.098.332a2 2 0 0 0-1.096-.332l-.004 1a1 1 0 0 1 .548.166l.552-.834zm.734.88a2 2 0 0 0-.734-.88l-.552.834a1 1 0 0 1 .367.44l.919-.394zm.136 1.16a2 2 0 0 0-.138-1.165l-.915.404a1 1 0 0 1 .07.582l.983.178zm-.538 1.041a2 2 0 0 0 .538-1.041l-.984-.179a1 1 0 0 1-.269.52l.715.7zm-.059.059.055-.055-.707-.707-.055.055.707.707zm-.286.428c.066-.16.164-.306.286-.428l-.706-.708a2.319 2.319 0 0 0-.504.753l.924.383zm-.1.505c0-.174.034-.345.1-.505l-.924-.383a2.319 2.319 0 0 0-.176.887h1zm.1.504c-.066-.16-.1-.331-.1-.505h-1c0 .305.06.607.176.888l.924-.383zm.286.428a1.319 1.319 0 0 1-.286-.428l-.924.383c.117.282.288.537.504.753l.706-.708zm.428.287a1.32 1.32 0 0 1-.427-.287l-.708.707c.215.216.471.387.753.503l.382-.923zm.505.1a1.33 1.33 0 0 1-.505-.1l-.382.923c.281.117.583.177.887.177v-1zm.505-.1c-.16.066-.332.1-.505.1v1c.305 0 .607-.06.888-.177l-.383-.923zm.428-.287a1.32 1.32 0 0 1-.428.287l.383.923a2.32 2.32 0 0 0 .752-.503l-.707-.706zm.055-.054-.055.054.707.707.055-.054-.707-.707zm1.045-.542a2 2 0 0 0-1.041.538l.699.715a1 1 0 0 1 .52-.27l-.178-.983zm1.165.138a2 2 0 0 0-1.165-.138l.179.984a1 1 0 0 1 .582.069l.404-.915zm.907.702a2 2 0 0 0-.937-.714l-.345.939a1 1 0 0 1 .468.356l.814-.581zm.372 1.116a2 2 0 0 0-.372-1.116l-.814.581a1 1 0 0 1 .187.559l1-.024zm0 .094V20.1h-1v.082h1zm.387.932a1.318 1.318 0 0 1-.386-.932h-1c0 .615.244 1.204.678 1.639l.708-.707zm.932.386c-.35 0-.685-.139-.932-.386l-.707.707a2.318 2.318 0 0 0 1.639.679v-1zm.932-.386a1.318 1.318 0 0 1-.932.386v1c.614 0 1.204-.244 1.639-.679l-.707-.707zm.386-.932c0 .35-.139.685-.386.932l.707.707a2.318 2.318 0 0 0 .679-1.64h-1zm0-.155v.155h1v-.155h-1zm.332-1.098a2 2 0 0 0-.332 1.096l1 .004a1 1 0 0 1 .166-.548l-.834-.552zm.88-.734a2 2 0 0 0-.88.734l.834.552a1 1 0 0 1 .44-.367l-.394-.919zm1.16-.136a2 2 0 0 0-1.165.138l.404.915a1 1 0 0 1 .582-.07l.178-.983zm1.041.538a2 2 0 0 0-1.041-.538l-.179.984a1 1 0 0 1 .52.269l.7-.715zm.059.058-.055-.054-.707.707.055.055.707-.707zm.428.287a1.32 1.32 0 0 1-.428-.286l-.708.706c.216.216.471.387.753.504l.383-.924zm.505.1c-.174 0-.345-.034-.505-.1l-.383.924c.281.116.583.176.887.176v-1zm.504-.1c-.16.066-.331.1-.505.1v1c.305 0 .607-.06.888-.176l-.383-.924zm.428-.286a1.32 1.32 0 0 1-.428.286l.383.924c.282-.117.537-.288.753-.504l-.708-.706zm.287-.428a1.32 1.32 0 0 1-.287.427l.707.708a2.32 2.32 0 0 0 .503-.753l-.923-.383zm.1-.505c0 .173-.034.345-.1.505l.923.382a2.32 2.32 0 0 0 .177-.887h-1zm-.1-.505c.066.16.1.331.1.505h1c0-.305-.06-.607-.177-.888l-.923.383zm-.287-.428c.123.123.22.268.287.428l.923-.383a2.32 2.32 0 0 0-.503-.752l-.706.707zm-.054-.055.054.055.707-.707-.054-.055-.707.707zm-.542-1.045a2 2 0 0 0 .538 1.042l.715-.7a1 1 0 0 1-.27-.52l-.983.178zM12 15.5a3.5 3.5 0 0 0 3.5-3.5h-1a2.5 2.5 0 0 1-2.5 2.5v1zM8.5 12a3.5 3.5 0 0 0 3.5 3.5v-1A2.5 2.5 0 0 1 9.5 12h-1zM12 8.5A3.5 3.5 0 0 0 8.5 12h1A2.5 2.5 0 0 1 12 9.5v-1zm3.5 3.5A3.5 3.5 0 0 0 12 8.5v1a2.5 2.5 0 0 1 2.5 2.5h1z"/></svg>