<svg xmlns="http://www.w3.org/2000/svg" width="24" height="24" fill="none"><path fill="#FF6D33" fill-rule="evenodd" d="M16 17c1.5-1 4-4.039 4-7a8 8 0 1 0-16 0c0 2.961 2.5 6 4 7v5a1 1 0 0 0 1 1h6a1 1 0 0 0 1-1v-5z" clip-rule="evenodd"/><path fill="#0F1E35" fill-rule="evenodd" d="M15 17a1 1 0 0 1 .445-.832c.613-.409 1.523-1.31 2.278-2.476C18.48 12.525 19 11.215 19 10a7 7 0 1 0-14 0c0 1.215.521 2.525 1.277 3.692.755 1.167 1.665 2.067 2.278 2.476A1 1 0 0 1 9 17v1h6v-1zm-6 2.006V19h6v3h1-8 1v-2.995zM8 22a1 1 0 0 0 1 1h6a1 1 0 0 0 1-1v-5c1.5-1 4-4.039 4-7a8 8 0 1 0-16 0c0 2.961 2.5 6 4 7v5zm4-12a1 1 0 0 0-1 1v4a1 1 0 1 0 2 0v-4a1 1 0 0 0-1-1z" clip-rule="evenodd"/></svg>