<svg xmlns="http://www.w3.org/2000/svg" width="24" height="24" fill="none"><mask id="a" fill="#fff"><path fill-rule="evenodd" d="M3 10.476a2 2 0 0 0-2 2v3.41a4.508 4.508 0 0 0 9.017 0v-3.41a2 2 0 0 0-2-2H3z" clip-rule="evenodd"/></mask><path fill="#FFCA51" fill-rule="evenodd" d="M3 10.476a2 2 0 0 0-2 2v3.41a4.508 4.508 0 0 0 9.017 0v-3.41a2 2 0 0 0-2-2H3z" clip-rule="evenodd"/><path fill="#0F1E35" d="M1 15.886H0h1zm9.017 0h1-1zM2 12.476a1 1 0 0 1 1-1v-2a3 3 0 0 0-3 3h2zm0 3.41v-3.41H0v3.41h2zm0 0H0h2zm3.508 3.508A3.508 3.508 0 0 1 2 15.886H0a5.508 5.508 0 0 0 5.508 5.508v-2zm3.509-3.508a3.508 3.508 0 0 1-3.509 3.508v2a5.508 5.508 0 0 0 5.509-5.508h-2zm0 0h2-2zm0-3.41v3.41h2v-3.41h-2zm-1-1a1 1 0 0 1 1 1h2a3 3 0 0 0-3-3v2zm-5.017 0h5.017v-2H3v2z" mask="url(#a)"/><circle cx="5.51" cy="6.869" r="2.205" fill="#FFCA51" stroke="#0F1E35"/><mask id="b" fill="#fff"><path fill-rule="evenodd" d="M15.984 10.476a2 2 0 0 0-2 2v3.41a4.508 4.508 0 0 0 9.017 0v-3.41a2 2 0 0 0-2-2h-5.017z" clip-rule="evenodd"/></mask><path fill="#FFCA51" fill-rule="evenodd" d="M15.984 10.476a2 2 0 0 0-2 2v3.41a4.508 4.508 0 0 0 9.017 0v-3.41a2 2 0 0 0-2-2h-5.017z" clip-rule="evenodd"/><path fill="#0F1E35" d="M13.984 15.886h-1 1zm9.017 0h1-1zm-8.017-3.41a1 1 0 0 1 1-1v-2a3 3 0 0 0-3 3h2zm0 3.41v-3.41h-2v3.41h2zm0 0h-2 2zm3.509 3.508a3.508 3.508 0 0 1-3.509-3.509h-2a5.508 5.508 0 0 0 5.509 5.508v-2zM22 15.884a3.508 3.508 0 0 1-3.508 3.508v2A5.508 5.508 0 0 0 24 15.886h-2zm0 0h2-2zm0-3.41v3.41h2v-3.41h-2zm-1-1a1 1 0 0 1 1 1h2a3 3 0 0 0-3-3v2zm-5.017 0H21v-2h-5.017v2z" mask="url(#b)"/><circle cx="18.494" cy="6.869" r="2.205" fill="#FFCA51" stroke="#0F1E35"/><mask id="c" fill="#fff"><path fill-rule="evenodd" d="M8.41 9.574a2 2 0 0 0-2 2v4.492a5.41 5.41 0 0 0 10.82 0v-4.492a2 2 0 0 0-2-2H8.41z" clip-rule="evenodd"/></mask><path fill="#FFCA51" fill-rule="evenodd" d="M8.41 9.574a2 2 0 0 0-2 2v4.492a5.41 5.41 0 0 0 10.82 0v-4.492a2 2 0 0 0-2-2H8.41z" clip-rule="evenodd"/><path fill="#0F1E35" d="m6.41 16.045 1 .003v-.003h-1zm10.82.02v-1h-1v1h1zm0 0v1h1v-1h-1zm-9.82-4.491a1 1 0 0 1 1-1v-2a3 3 0 0 0-3 3h2zm0 4.47v-4.47h-2v4.47h2zm0 .022v-.017l-2-.008a7 7 0 0 0 0 .025h2zm4.41 4.41a4.41 4.41 0 0 1-4.41-4.41h-2a6.41 6.41 0 0 0 6.41 6.41v-2zm4.41-4.41a4.41 4.41 0 0 1-4.41 4.41v2a6.41 6.41 0 0 0 6.41-6.41h-2zm0 0h2-2zm1-1v2-2zm-1-3.492v4.492h2v-4.492h-2zm-1-1a1 1 0 0 1 1 1h2a3 3 0 0 0-3-3v2zm-6.82 0h6.82v-2H8.41v2z" mask="url(#c)"/><circle cx="11.82" cy="5.246" r="2.746" fill="#FFCA51" stroke="#0F1E35"/></svg>