<svg xmlns="http://www.w3.org/2000/svg" width="24" height="24" fill="none"><path fill="#FF6D33" stroke="#0F1E35" stroke-linecap="round" stroke-linejoin="round" d="M20.178 4.97h0l-3.149-3.148s0 0 0 0a1.1 1.1 0 0 0-.777-.322H4.6a1.1 1.1 0 0 0-1.1 1.1v18.8a1.1 1.1 0 0 0 1.1 1.1h14.8a1.1 1.1 0 0 0 1.1-1.1V5.749a1.1 1.1 0 0 0-.322-.778Z"/><mask id="a" fill="#fff"><path d="M16 1v4.4a.6.6 0 0 0 .6.6H21"/></mask><path fill="#0F1E35" d="M17 1a1 1 0 1 0-2 0h2Zm4 6a1 1 0 1 0 0-2v2Zm-6-6v4.4h2V1h-2Zm0 4.4A1.6 1.6 0 0 0 16.6 7V5c.22 0 .4.18.4.4h-2ZM16.6 7H21V5h-4.4v2Z" mask="url(#a)"/><path stroke="#0F1E35" stroke-linecap="round" d="M10 9h8m-8 4h8m-8 4h8"/><path fill="#0F1E35" d="M7.214 7.818V10h-.592V8.364H6.61l-.477.285v-.503l.537-.328h.545ZM6.145 14v-.426l.814-.673c.054-.045.1-.087.138-.126.04-.04.07-.08.09-.123a.303.303 0 0 0 .032-.14.272.272 0 0 0-.036-.143.235.235 0 0 0-.098-.092.307.307 0 0 0-.145-.033.307.307 0 0 0-.145.033.23.23 0 0 0-.096.097.327.327 0 0 0-.034.156h-.563a.676.676 0 0 1 .395-.652c.126-.06.274-.09.443-.09.174 0 .326.028.453.085a.674.674 0 0 1 .298.234.643.643 0 0 1 .053.605 1.024 1.024 0 0 1-.188.274c-.09.1-.218.22-.384.358l-.205.17v.013h.853V14H6.145Zm.852 4.03c-.172 0-.324-.03-.458-.089a.765.765 0 0 1-.313-.246.602.602 0 0 1-.115-.36h.596c.001.042.014.08.039.113s.06.058.104.077a.39.39 0 0 0 .151.028c.055 0 .103-.01.145-.03a.238.238 0 0 0 .098-.081.203.203 0 0 0 .034-.12.176.176 0 0 0-.04-.117.263.263 0 0 0-.114-.08.462.462 0 0 0-.17-.028h-.221v-.41h.222c.058 0 .11-.01.155-.028a.243.243 0 0 0 .106-.08.185.185 0 0 0 .037-.117c0-.043-.01-.08-.031-.113a.216.216 0 0 0-.09-.077.35.35 0 0 0-.276.001.242.242 0 0 0-.099.08.203.203 0 0 0-.037.117h-.567a.611.611 0 0 1 .11-.354.737.737 0 0 1 .3-.24 1.05 1.05 0 0 1 .438-.088c.162 0 .304.028.428.082.124.055.22.13.29.226a.53.53 0 0 1 .105.327.383.383 0 0 1-.126.3.547.547 0 0 1-.322.14v.016c.177.02.309.073.398.162a.442.442 0 0 1 .13.333.53.53 0 0 1-.114.34.76.76 0 0 1-.32.232 1.233 1.233 0 0 1-.473.084Z"/></svg>