<svg xmlns="http://www.w3.org/2000/svg" width="32" height="32" fill="none"><rect width="32" height="32" fill="#0F1E35" rx=".737"/><path fill="#fff" d="M19.88 8.926c.093 0 .18.048.23.127l1.973 3.14a.25.25 0 0 0 .442 0l1.973-3.14a.272.272 0 0 1 .23-.127h2.982c.217 0 .346.243.225.424l-3.497 5.186a.271.271 0 0 0 0 .305l3.581 5.251a.272.272 0 0 1-.224.425H24.81a.271.271 0 0 1-.226-.121l-2.074-3.112a.216.216 0 0 1-.015-.027.212.212 0 0 0-.384 0 .216.216 0 0 1-.015.027l-2.075 3.112a.271.271 0 0 1-.226.12h-2.98a.272.272 0 0 1-.224-.425l3.576-5.185a.271.271 0 0 0 .003-.305l-3.502-5.253a.272.272 0 0 1 .226-.422h2.985zM4.16 13.463c0 .97.235 1.845.706 2.624a5.28 5.28 0 0 0 1.962 1.852c.838.455 1.77.683 2.8.683.426 0 .815-.044 1.168-.132.368-.103.69-.25.97-.441.209-.136.391-.29.548-.462.059-.065.174-.023.168.064-.038.616-.159 1.16-.363 1.633-.235.529-.566.933-.992 1.212-.412.28-.911.419-1.5.419a3.653 3.653 0 0 1-1.653-.397 3.744 3.744 0 0 1-1.234-1.015.091.091 0 0 0-.14-.005l-1.86 2.109a.088.088 0 0 0-.001.116 6.399 6.399 0 0 0 2.133 1.639 6.158 6.158 0 0 0 2.712.617c1.264 0 2.359-.338 3.284-1.014.926-.676 1.64-1.646 2.139-2.91.5-1.279.75-2.83.75-4.652 0-1.572-.236-2.91-.706-4.012-.456-1.102-1.117-1.948-1.984-2.536-.867-.587-1.91-.881-3.13-.881-1.088 0-2.073.25-2.955.75a5.655 5.655 0 0 0-2.072 1.961c-.5.823-.75 1.75-.75 2.778zm5.776-2.513c.441 0 .838.118 1.19.353.368.22.662.521.883.903.235.368.352.787.352 1.257 0 .426-.11.823-.33 1.19-.22.368-.515.662-.882.883a2.362 2.362 0 0 1-1.213.308 2.44 2.44 0 0 1-1.212-.308 2.534 2.534 0 0 1-.882-.882 2.273 2.273 0 0 1-.33-1.19c0-.471.11-.89.33-1.258a2.66 2.66 0 0 1 .904-.903 2.168 2.168 0 0 1 1.19-.353z"/></svg>