<svg xmlns="http://www.w3.org/2000/svg" width="24" height="24" fill="none"><path fill="#FF6D33" fill-rule="evenodd" d="M12 5c0-1.657-1.12-3-2.5-3S7 3.343 7 5c0 .225.02.444.06.655C6.632 5.245 6.09 5 5.5 5 4.12 5 3 6.343 3 8c0 .498.101.968.28 1.38C2.516 9.895 2 10.876 2 12c0 1.657 1.12 3 2.5 3 .047 0 .094-.002.14-.005A3.35 3.35 0 0 0 4 17c0 1.657 1.12 3 2.5 3 .572 0 1.099-.23 1.52-.618C8.176 20.858 9.227 22 10.5 22c.563 0 1.082-.223 1.5-.6.418.377.937.6 1.5.6 1.273 0 2.324-1.142 2.48-2.618.421.388.948.618 1.52.618 1.38 0 2.5-1.343 2.5-3a3.35 3.35 0 0 0-.64-2.005c.046.003.093.005.14.005 1.38 0 2.5-1.343 2.5-3 0-1.125-.516-2.106-1.28-2.62.179-.412.28-.882.28-1.38 0-1.657-1.12-3-2.5-3-.59 0-1.132.245-1.56.655.04-.21.06-.43.06-.655 0-1.657-1.12-3-2.5-3S12 3.343 12 5z" clip-rule="evenodd"/><path fill="#000" fill-rule="evenodd" d="M9.5 2.5a2 2 0 0 0-1.81 2.852.5.5 0 0 1-.7.648.498.498 0 0 1-.29-.1 2 2 0 0 0-2.864 2.71.5.5 0 0 1 .034.496.498.498 0 0 1-.154.241 3.498 3.498 0 0 0 .432 5.623A3.496 3.496 0 0 1 7 13.5a.5.5 0 0 1 0 1 2.5 2.5 0 1 0 .833 4.858.5.5 0 0 1 .66.557A.502.502 0 0 1 8.5 20a1.5 1.5 0 1 0 3 0V4.5a2 2 0 0 0-2-2zm2.5 19a2.5 2.5 0 0 1-4.458-1.042 3.5 3.5 0 0 1-3.853-4.596 4.498 4.498 0 0 1-.88-7.035 3 3 0 0 1 3.696-4.154A3 3 0 0 1 12 2.842a3 3 0 0 1 5.495 1.832 3 3 0 0 1 3.696 4.156 4.498 4.498 0 0 1-.88 7.033 3.5 3.5 0 0 1-3.852 4.597A2.5 2.5 0 0 1 12 21.498zm3.507-1.585A.5.5 0 0 0 15.5 20a1.5 1.5 0 1 1-3 0V9.45A3.49 3.49 0 0 0 15 10.5a.5.5 0 0 0 0-1A2.5 2.5 0 0 1 12.5 7V4.5a2 2 0 1 1 3.81.852.5.5 0 0 0 .7.648.498.498 0 0 0 .29-.1 2 2 0 0 1 2.864 2.71.5.5 0 0 0-.04.486.499.499 0 0 0 .158.251 3.498 3.498 0 0 1-.43 5.622A3.496 3.496 0 0 0 17 13.5a.5.5 0 0 0 0 1 2.5 2.5 0 1 1-.834 4.858.5.5 0 0 0-.659.557z" clip-rule="evenodd"/></svg>