<svg xmlns="http://www.w3.org/2000/svg" width="24" height="24" fill="none"><path fill="#FF6D33" d="M3.398 3.44C2.885 3.843 2.5 4.367 2.5 5v14c0 .632.382 1.156.893 1.56.516.41 1.232.756 2.074 1.037 1.689.564 3.995.903 6.533.903 2.538 0 4.845-.34 6.533-.903.842-.281 1.558-.627 2.074-1.036.511-.405.893-.929.893-1.561V5c0-.633-.385-1.157-.898-1.56-.518-.409-1.236-.755-2.08-1.036C16.83 1.84 14.524 1.5 12 1.5s-4.83.34-6.522.904c-.844.281-1.562.627-2.08 1.036z"/><path fill="#0F1E35" fill-rule="evenodd" d="M3.5 5c0-.195.118-.461.517-.775.393-.31.992-.61 1.777-.872C7.36 2.831 9.554 2.5 12 2.5c2.447 0 4.64.331 6.206.853.785.262 1.384.562 1.777.872.399.314.517.58.517.775 0 .195-.118.461-.517.775-.393.31-.992.61-1.777.872-1.565.522-3.76.853-6.206.853-2.447 0-4.64-.331-6.206-.853-.785-.262-1.384-.562-1.777-.872C3.618 5.461 3.5 5.195 3.5 5zm-1 0c0-.633.385-1.157.898-1.56.518-.409 1.236-.755 2.08-1.036C7.17 1.84 9.476 1.5 12 1.5s4.83.34 6.522.904c.844.281 1.562.627 2.08 1.036.513.403.898.927.898 1.56v14c0 .632-.382 1.156-.893 1.56-.516.41-1.232.756-2.074 1.037-1.689.564-3.995.903-6.533.903-2.538 0-4.844-.34-6.533-.903-.842-.281-1.558-.627-2.074-1.036-.511-.405-.893-.929-.893-1.561V5zm18 1.638V12c0 .198-.118.464-.514.777-.39.31-.986.61-1.77.871-1.56.521-3.754.852-6.216.852s-4.656-.33-6.217-.852c-.783-.261-1.38-.562-1.77-.87-.395-.314-.513-.58-.513-.778V6.638c.509.375 1.189.695 1.978.958C7.17 8.16 9.476 8.5 12 8.5s4.83-.34 6.522-.904c.79-.263 1.47-.583 1.978-.958zM3.5 19v-5.357c.506.373 1.182.692 1.967.954 1.689.564 3.995.903 6.533.903 2.538 0 4.845-.34 6.533-.903.785-.262 1.461-.58 1.967-.954V19c0 .198-.118.464-.514.777-.39.31-.986.61-1.77.871-1.56.521-3.754.852-6.216.852s-4.656-.33-6.217-.852c-.783-.261-1.38-.562-1.77-.87-.395-.314-.513-.58-.513-.778z" clip-rule="evenodd"/></svg>