<svg xmlns="http://www.w3.org/2000/svg" width="24" height="24" fill="none"><path fill="#FF6D33" stroke="#0F1E35" stroke-linecap="round" stroke-linejoin="round" d="M19 5H5c-1.105 0-2 .846-2 1.889V20.11C3 21.154 3.895 22 5 22h14c1.105 0 2-.846 2-1.889V6.89C21 5.846 20.105 5 19 5Z"/><path stroke="#0F1E35" stroke-linecap="round" d="M5.5 18.5h1m2 0h1m2 0h1m2 0h1m2 0h1m-13-2h1m2 0h1m2 0h1m2 0h1m2 0h1m-13-2h1m2 0h1m2 0h1m2 0h1m2 0h1m-13-2h1m2 0h1m2 0h1m2 0h1m2 0h1m-13-2h1m2 0h1m2 0h1m2 0h1m2 0h1"/><path stroke="#0F1E35" stroke-linecap="round" stroke-width="2" d="M7 3v4m10-4v4"/></svg>